<svg width="63" height="63" viewBox="0 0 63 63" fill="none" xmlns="http://www.w3.org/2000/svg">
<rect width="63" height="63" fill="#E5E5E5"/>
<path d="M44.9203 31.4997C44.9203 32.5497 45.7715 33.4011 46.8217 33.4011H51.1461C53.3475 33.4011 55.5223 33.9057 57.4877 34.8973C58.0737 35.193 58.7467 35.3413 59.4582 35.2938C61.3432 35.1679 62.8715 33.6348 62.9918 31.7493C63.133 29.5359 61.38 27.697 59.1969 27.697C58.6056 27.697 58.0458 27.8319 57.5469 28.0729C55.5442 29.0397 53.3692 29.5984 51.1453 29.5984H46.8217C45.7717 29.5983 44.9203 30.4496 44.9203 31.4997Z" fill="#FB4C47"/>
<path d="M19.1539 43.8446C18.5401 43.2307 17.5447 43.2307 16.9309 43.8446L14.4028 46.3727C13.1158 47.6596 11.5495 48.636 9.82081 49.2053C9.30537 49.375 8.82524 49.6817 8.43716 50.1254C7.40874 51.301 7.41157 53.0907 8.44343 54.2633C9.65482 55.64 11.7547 55.6902 13.0309 54.4139C13.3766 54.0683 13.6249 53.6621 13.7759 53.2296C14.3814 51.4936 15.3264 49.8956 16.6265 48.5955L19.1541 46.0679C19.7678 45.4538 19.7678 44.4584 19.1539 43.8446V43.8446Z" fill="#FB4C47"/>
<path d="M41.9569 21.0434C42.5993 21.6858 43.6407 21.6858 44.2832 21.0434L46.9286 18.398C48.2754 17.0513 49.9145 16.0296 51.7234 15.4338C52.2627 15.2562 52.7652 14.9353 53.1712 14.4709C54.2474 13.2407 54.2444 11.3679 53.1646 10.1409C51.897 8.70042 49.6995 8.64787 48.3641 9.98329C48.0023 10.345 47.7426 10.77 47.5846 11.2226C46.9509 13.0392 45.9621 14.7114 44.6017 16.072L41.9567 18.7169C41.3144 19.3595 41.3144 20.4009 41.9569 21.0434V21.0434Z" fill="#FB4C47"/>
<path d="M31.4989 44.9198C30.4488 44.9198 29.5975 45.7711 29.5975 46.8213V51.1456C29.5975 53.347 29.0929 55.5218 28.1013 57.4872C27.8056 58.0732 27.6573 58.7462 27.7048 59.4577C27.8307 61.3427 29.3638 62.8709 31.2493 62.9913C33.4627 63.1325 35.3016 61.3795 35.3016 59.1964C35.3016 58.6051 35.1667 58.0453 34.9257 57.5464C33.9588 55.5437 33.4002 53.3688 33.4002 51.1448V46.8213C33.4003 45.7712 32.549 44.9198 31.4989 44.9198V44.9198Z" fill="#FFA2A1"/>
<path d="M34.9284 57.5465C33.9615 55.5439 33.4029 53.3689 33.4029 51.145V46.8213C33.4029 45.7712 32.5517 44.9198 31.5015 44.9198C30.4513 44.9198 29.6 45.7711 29.6 46.8213V51.145C29.6 53.3689 30.1587 55.5437 31.1256 57.5465C31.3665 58.0455 31.5015 58.6052 31.5015 59.1966C31.5015 60.603 30.7376 61.83 29.6028 62.4879C30.0951 62.7743 30.6558 62.9534 31.2519 62.9914C33.4654 63.1327 35.3043 61.3797 35.3043 59.1966C35.3043 58.6052 35.1693 58.0455 34.9284 57.5465V57.5465Z" fill="#FB4C47"/>
<path d="M17.3091 23.6471C20.7394 23.6471 23.5203 20.8663 23.5203 17.4359C23.5203 14.0056 20.7394 11.2247 17.3091 11.2247C13.8787 11.2247 11.0979 14.0056 11.0979 17.4359C11.0979 20.8663 13.8787 23.6471 17.3091 23.6471Z" fill="#FF807E"/>
<path d="M17.308 11.2247C16.6447 11.2247 16.0061 11.3298 15.4066 11.5224C17.9067 12.3256 19.7164 14.669 19.7164 17.4359C19.7164 20.2029 17.9067 22.5463 15.4066 23.3495C16.006 23.5421 16.6446 23.6471 17.308 23.6471C20.7384 23.6471 23.5193 20.8663 23.5193 17.4359C23.5193 14.0055 20.7383 11.2247 17.308 11.2247V11.2247Z" fill="#FB4C47"/>
<path d="M31.5002 51.7811C42.7014 51.7811 51.7817 42.7008 51.7817 31.4997C51.7817 20.2985 42.7014 11.2182 31.5002 11.2182C20.2991 11.2182 11.2187 20.2985 11.2187 31.4997C11.2187 42.7008 20.2991 51.7811 31.5002 51.7811Z" fill="#FFBFBE"/>
<path d="M31.5015 11.2182C30.8602 11.2182 30.2262 11.2493 29.6 11.3076C39.9094 12.2664 47.9802 20.9399 47.9802 31.4997C47.9802 42.0594 39.9095 50.7329 29.6002 51.6917C30.2262 51.7499 30.8603 51.7811 31.5016 51.7811C42.7028 51.7811 51.7831 42.7009 51.7831 31.4997C51.7831 20.2984 42.7027 11.2182 31.5015 11.2182V11.2182Z" fill="#FFA2A2"/>
<path d="M39.1035 28.6866C41.3788 28.6866 43.2232 26.8422 43.2232 24.5669C43.2232 22.2917 41.3788 20.4472 39.1035 20.4472C36.8283 20.4472 34.9838 22.2917 34.9838 24.5669C34.9838 26.8422 36.8283 28.6866 39.1035 28.6866Z" fill="#FFA2A1"/>
<path d="M39.1066 20.4472C38.4205 20.4472 37.7741 20.6159 37.2051 20.9126C38.5231 21.5998 39.4234 22.9778 39.4234 24.5669C39.4234 26.1561 38.5231 27.5342 37.2051 28.2213C37.7741 28.5179 38.4205 28.6866 39.1066 28.6866C41.3818 28.6866 43.2263 26.8422 43.2263 24.5669C43.2263 22.2917 41.3818 20.4472 39.1066 20.4472V20.4472Z" fill="#FF807E"/>
<path d="M24.2483 42.2112C25.7885 42.2112 27.037 40.9626 27.037 39.4225C27.037 37.8823 25.7885 36.6338 24.2483 36.6338C22.7081 36.6338 21.4596 37.8823 21.4596 39.4225C21.4596 40.9626 22.7081 42.2112 24.2483 42.2112Z" fill="#FF807E"/>
<path d="M45.2972 50.3442C47.3974 50.3442 49.0999 48.6417 49.0999 46.5415C49.0999 44.4413 47.3974 42.7388 45.2972 42.7388C43.197 42.7388 41.4945 44.4413 41.4945 46.5415C41.4945 48.6417 43.197 50.3442 45.2972 50.3442Z" fill="#FB4C47"/>
<path d="M45.2977 42.7388C44.6048 42.7388 43.9558 42.9251 43.3963 43.2488C44.5326 43.9064 45.2977 45.1342 45.2977 46.5416C45.2977 47.949 44.5326 49.1768 43.3963 49.8345C43.9558 50.1582 44.6048 50.3445 45.2977 50.3445C47.398 50.3445 49.1005 48.6419 49.1005 46.5418C49.1005 44.4416 47.398 42.7388 45.2977 42.7388V42.7388Z" fill="#FF807E"/>
<path d="M18.0794 31.4997C18.0794 32.5497 17.2282 33.4011 16.178 33.4011H11.8537C9.65229 33.4011 7.47746 33.9057 5.51205 34.8973C4.92611 35.193 4.25305 35.3413 3.5416 35.2938C1.65654 35.1679 0.128316 33.6348 0.00797766 31.7493C-0.133279 29.5359 1.61975 27.697 3.80283 27.697C4.39418 27.697 4.95392 27.8319 5.45287 28.0729C7.45556 29.0397 9.63051 29.5984 11.8544 29.5984H16.1781C17.2281 29.5983 18.0794 30.4496 18.0794 31.4997Z" fill="#FB4C47"/>
<path d="M31.4988 18.0795C32.5489 18.0795 33.4002 17.2282 33.4002 16.178V11.8537C33.4002 9.65232 33.9048 7.47749 34.8965 5.51209C35.1921 4.92614 35.3404 4.25308 35.2929 3.54163C35.167 1.65658 33.6339 0.128351 31.7485 0.00801199C29.535 -0.133244 27.6961 1.61979 27.6961 3.80286C27.6961 4.39422 27.8311 4.95395 28.072 5.4529C29.0389 7.45559 29.5975 9.63054 29.5975 11.8545V16.1782C29.5974 17.2281 30.4487 18.0795 31.4988 18.0795Z" fill="#FFA2A1"/>
<path d="M35.2939 3.54162C35.168 1.65657 33.6348 0.12834 31.7494 0.00800189C30.9619 -0.0423237 30.2225 0.148151 29.5957 0.511504C30.6606 1.13079 31.4049 2.2526 31.491 3.54162C31.5385 4.25307 31.3902 4.92613 31.0945 5.51207C30.1029 7.47748 29.5983 9.65231 29.5983 11.8537V16.178C29.5983 17.2281 30.4495 18.0795 31.4997 18.0795C32.5499 18.0795 33.4012 17.2282 33.4012 16.178V11.8537C33.4012 9.65231 33.9058 7.47748 34.8974 5.51207C35.1931 4.92613 35.3415 4.25307 35.2939 3.54162V3.54162Z" fill="#FB4C47"/>
<path d="M59.2005 27.6992C58.6095 27.6992 58.0502 27.834 57.5515 28.0748C57.4633 28.1174 57.3742 28.1583 57.2853 28.1992C58.4963 28.8925 59.2894 30.2328 59.1925 31.7492C59.1097 33.0461 58.3604 34.1761 57.2871 34.7957C57.3555 34.8288 57.4242 34.8612 57.4922 34.8954C58.0779 35.1908 58.7504 35.3391 59.4615 35.2916C61.3455 35.1657 62.8728 33.6335 62.993 31.7492C63.1343 29.537 61.3822 27.6992 59.2005 27.6992V27.6992Z" fill="#FF807E"/>
</svg>
